<?xml version="1.0" encoding="utf-8"?>
<svg version="1.1" xmlns:xlink="http://www.w3.org/1999/xlink" width="50px" height="50px" xmlns="http://www.w3.org/2000/svg">
  <g transform="matrix(1 0 0 1 -223 -750 )">
    <path d="M 224 775  A 24 24 0 0 1 248 751 A 24 24 0 0 1 272 775 A 24 24 0 0 1 248 799 A 24 24 0 0 1 224 775 Z " fill-rule="nonzero" fill="#ffffff" stroke="none" />
    <path d="M 223.5 775  A 24.5 24.5 0 0 1 248 750.5 A 24.5 24.5 0 0 1 272.5 775 A 24.5 24.5 0 0 1 248 799.5 A 24.5 24.5 0 0 1 223.5 775 Z " stroke-width="1" stroke-dasharray="3,1" stroke="#999999" fill="none" stroke-dashoffset="0.5" />
  </g>
</svg>