<?xml version="1.0" encoding="utf-8"?>
<svg version="1.1" xmlns:xlink="http://www.w3.org/1999/xlink" width="50px" height="50px" xmlns="http://www.w3.org/2000/svg">
  <g transform="matrix(1 0 0 1 -1347 -750 )">
    <path d="M 1348 775  A 24 24 0 0 1 1372 751 A 24 24 0 0 1 1396 775 A 24 24 0 0 1 1372 799 A 24 24 0 0 1 1348 775 Z " fill-rule="nonzero" fill="#aeaeae" stroke="none" />
    <path d="M 1347.5 775  A 24.5 24.5 0 0 1 1372 750.5 A 24.5 24.5 0 0 1 1396.5 775 A 24.5 24.5 0 0 1 1372 799.5 A 24.5 24.5 0 0 1 1347.5 775 Z " stroke-width="1" stroke-dasharray="3,1" stroke="#999999" fill="none" stroke-dashoffset="0.5" />
  </g>
</svg>