<?xml version="1.0" encoding="utf-8"?>
<svg version="1.1" xmlns:xlink="http://www.w3.org/1999/xlink" width="167px" height="171px" xmlns="http://www.w3.org/2000/svg">
  <g transform="matrix(1 0 0 1 -164 -262 )">
    <path d="M 247.5 262.5  C 293.98 262.5  330.5 299.9  330.5 347.5  C 330.5 395.1  293.98 432.5  247.5 432.5  C 201.02 432.5  164.5 395.1  164.5 347.5  C 164.5 299.9  201.02 262.5  247.5 262.5  Z " fill-rule="nonzero" fill="#ffffff" stroke="none" />
    <path d="M 247.5 262.5  C 293.98 262.5  330.5 299.9  330.5 347.5  C 330.5 395.1  293.98 432.5  247.5 432.5  C 201.02 432.5  164.5 395.1  164.5 347.5  C 164.5 299.9  201.02 262.5  247.5 262.5  Z " stroke-width="1" stroke-dasharray="3,1" stroke="#d7d7d7" fill="none" stroke-opacity="0.87843137254902" stroke-dashoffset="0.5" />
  </g>
</svg>