<?xml version="1.0" encoding="utf-8"?>
<svg version="1.1" xmlns:xlink="http://www.w3.org/1999/xlink" width="33px" height="33px" xmlns="http://www.w3.org/2000/svg">
  <g transform="matrix(1 0 0 1 -1202 -474 )">
    <path d="M 1218.5 474  C 1227.74 474  1235 481.26  1235 490.5  C 1235 499.74  1227.74 507  1218.5 507  C 1209.26 507  1202 499.74  1202 490.5  C 1202 481.26  1209.26 474  1218.5 474  Z " fill-rule="nonzero" fill="#f59a23" stroke="none" />
    <path d="M 1218.5 474.5  C 1227.46 474.5  1234.5 481.54  1234.5 490.5  C 1234.5 499.46  1227.46 506.5  1218.5 506.5  C 1209.54 506.5  1202.5 499.46  1202.5 490.5  C 1202.5 481.54  1209.54 474.5  1218.5 474.5  Z " stroke-width="1" stroke="#ffffff" fill="none" />
  </g>
</svg>