<?xml version="1.0" encoding="utf-8"?>
<svg version="1.1" xmlns:xlink="http://www.w3.org/1999/xlink" width="33px" height="33px" xmlns="http://www.w3.org/2000/svg">
  <defs>
    <mask fill="white" id="clip20">
      <path d="M 0 16.5  C 0 7.26000000000002  7.2599999999999 0  16.5 0  C 20.0370825880245 0  23.2840224758055 1.06385656756003  25.9446411083428 2.89539114768044  C 30.2344160707642 5.84841533856789  33 10.7970825880246  33 16.5  C 33 25.74  25.7400000000001 33  16.5 33  C 7.2599999999999 33  0 25.74  0 16.5  Z " fill-rule="evenodd" />
    </mask>
  </defs>
  <g transform="matrix(1 0 0 1 -1250 -474 )">
    <path d="M 0 16.5  C 0 7.26000000000002  7.2599999999999 0  16.5 0  C 20.0370825880245 0  23.2840224758055 1.06385656756003  25.9446411083428 2.89539114768044  C 30.2344160707642 5.84841533856789  33 10.7970825880246  33 16.5  C 33 25.74  25.7400000000001 33  16.5 33  C 7.2599999999999 33  0 25.74  0 16.5  Z " fill-rule="nonzero" fill="#f59a23" stroke="none" transform="matrix(1 0 0 1 1250 474 )" />
    <path d="M 0 16.5  C 0 7.26000000000002  7.2599999999999 0  16.5 0  C 20.0370825880245 0  23.2840224758055 1.06385656756003  25.9446411083428 2.89539114768044  C 30.2344160707642 5.84841533856789  33 10.7970825880246  33 16.5  C 33 25.74  25.7400000000001 33  16.5 33  C 7.2599999999999 33  0 25.74  0 16.5  Z " stroke-width="2" stroke="#ffffff" fill="none" transform="matrix(1 0 0 1 1250 474 )" mask="url(#clip20)" />
  </g>
</svg>