<?xml version="1.0" encoding="utf-8"?>
<svg version="1.1" xmlns:xlink="http://www.w3.org/1999/xlink" width="33px" height="33px" xmlns="http://www.w3.org/2000/svg">
  <g transform="matrix(1 0 0 1 -1456 -474 )">
    <path d="M 1472.5 474  C 1481.74 474  1489 481.26  1489 490.5  C 1489 499.74  1481.74 507  1472.5 507  C 1463.26 507  1456 499.74  1456 490.5  C 1456 481.26  1463.26 474  1472.5 474  Z " fill-rule="nonzero" fill="#aaaaaa" stroke="none" />
    <path d="M 1472.5 474.5  C 1481.46 474.5  1488.5 481.54  1488.5 490.5  C 1488.5 499.46  1481.46 506.5  1472.5 506.5  C 1463.54 506.5  1456.5 499.46  1456.5 490.5  C 1456.5 481.54  1463.54 474.5  1472.5 474.5  Z " stroke-width="1" stroke="#ffffff" fill="none" />
  </g>
</svg>