<?xml version="1.0" encoding="utf-8"?>
<svg version="1.1" xmlns:xlink="http://www.w3.org/1999/xlink" width="12px" height="12px" viewBox="2313 529.5  12 12" xmlns="http://www.w3.org/2000/svg">
  <path d="M 2319 529.5  C 2322.36 529.5  2325 532.14  2325 535.5  C 2325 538.86  2322.36 541.5  2319 541.5  C 2315.64 541.5  2313 538.86  2313 535.5  C 2313 532.14  2315.64 529.5  2319 529.5  Z " fill-rule="nonzero" fill="#f0f0f0" stroke="none" />
  <path d="M 2319 530  C 2322.08 530  2324.5 532.42  2324.5 535.5  C 2324.5 538.58  2322.08 541  2319 541  C 2315.92 541  2313.5 538.58  2313.5 535.5  C 2313.5 532.42  2315.92 530  2319 530  Z " stroke-width="1" stroke="#797979" fill="none" />
  <path d="M 2319 538.5  C 2317.32 538.5  2316 537.18  2316 535.5  C 2316 533.82  2317.32 532.5  2319 532.5  C 2320.68 532.5  2322 533.82  2322 535.5  C 2322 537.18  2320.68 538.5  2319 538.5  " fill-rule="nonzero" fill="#797979" stroke="none" />
</svg>