<?xml version="1.0" encoding="utf-8"?>
<svg version="1.1" xmlns:xlink="http://www.w3.org/1999/xlink" width="12px" height="12px" viewBox="2313 482.5  12 12" xmlns="http://www.w3.org/2000/svg">
  <path d="M 2319 482.5  C 2322.36 482.5  2325 485.14  2325 488.5  C 2325 491.86  2322.36 494.5  2319 494.5  C 2315.64 494.5  2313 491.86  2313 488.5  C 2313 485.14  2315.64 482.5  2319 482.5  Z " fill-rule="nonzero" fill="#f0f0f0" stroke="none" />
  <path d="M 2319 483  C 2322.08 483  2324.5 485.42  2324.5 488.5  C 2324.5 491.58  2322.08 494  2319 494  C 2315.92 494  2313.5 491.58  2313.5 488.5  C 2313.5 485.42  2315.92 483  2319 483  Z " stroke-width="1" stroke="#797979" fill="none" />
  <path d="M 2319 491.5  C 2317.32 491.5  2316 490.18  2316 488.5  C 2316 486.82  2317.32 485.5  2319 485.5  C 2320.68 485.5  2322 486.82  2322 488.5  C 2322 490.18  2320.68 491.5  2319 491.5  " fill-rule="nonzero" fill="#797979" stroke="none" />
</svg>