<?xml version="1.0" encoding="utf-8"?>
<svg version="1.1" xmlns:xlink="http://www.w3.org/1999/xlink" width="12px" height="12px" viewBox="2184 528.5  12 12" xmlns="http://www.w3.org/2000/svg">
  <path d="M 2190 528.5  C 2193.36 528.5  2196 531.14  2196 534.5  C 2196 537.86  2193.36 540.5  2190 540.5  C 2186.64 540.5  2184 537.86  2184 534.5  C 2184 531.14  2186.64 528.5  2190 528.5  Z " fill-rule="nonzero" fill="#f0f0f0" stroke="none" />
  <path d="M 2190 529  C 2193.08 529  2195.5 531.42  2195.5 534.5  C 2195.5 537.58  2193.08 540  2190 540  C 2186.92 540  2184.5 537.58  2184.5 534.5  C 2184.5 531.42  2186.92 529  2190 529  Z " stroke-width="1" stroke="#797979" fill="none" />
  <path d="M 2190 537.5  C 2188.32 537.5  2187 536.18  2187 534.5  C 2187 532.82  2188.32 531.5  2190 531.5  C 2191.68 531.5  2193 532.82  2193 534.5  C 2193 536.18  2191.68 537.5  2190 537.5  " fill-rule="nonzero" fill="#797979" stroke="none" />
</svg>